<svg xmlns="http://www.w3.org/2000/svg" xmlns:xlink="http://www.w3.org/1999/xlink" version="1.1" data-diagram-type="DESCRIPTION" style="width:481px;height:617px;background:#FFFFFF;" width="481px" height="617px" viewBox="0 0 481 617" zoomAndPan="magnify" preserveAspectRatio="none" contentStyleType="text/css"><?plantuml 1.2026.8?><defs/><g font-family="sans-serif" lengthAdjust="spacing"><g class="title" data-source-line="22"><text x="128.5" y="20.78" fill="#000" font-size="14" textLength="217" font-weight="700" font-family="Helvetica">Contexto: quién habla con quién</text></g><!--cluster EST--><g class="cluster" data-qualified-name="EST" id="ent0001" data-source-line="24"><rect x="12" y="42" width="332" height="104" fill="none" style="stroke:#9AA8B8;stroke-width:1;" rx="2.5" ry="2.5"/><text x="124.537" y="54.01" fill="#000" font-size="13" textLength="106.926" font-weight="700" font-family="Helvetica">Establecimientos</text></g><!--cluster CAPA--><g class="cluster" data-qualified-name="CAPA" id="ent0004" data-source-line="28"><rect x="20" y="213" width="446" height="230" fill="none" style="stroke:#9AA8B8;stroke-width:1;" rx="2.5" ry="2.5"/><text x="67.468" y="225.01" fill="#000" font-size="13" textLength="351.063" font-weight="700" font-family="Helvetica">Capa de interoperabilidad (nodo territorial / nivel central)</text></g><!--cluster FON--><g class="cluster" data-qualified-name="FON" id="ent0008" data-source-line="33"><rect x="7" y="499" width="460" height="104" fill="none" style="stroke:#9AA8B8;stroke-width:1;" rx="2.5" ry="2.5"/><text x="209.556" y="511.01" fill="#000" font-size="13" textLength="54.888" font-weight="700" font-family="Helvetica">FONASA</text></g><!--entity HIS--><g class="entity" data-qualified-name="EST.HIS" id="ent0002" data-source-line="25"><rect x="27.63" y="74" width="118.749" height="56" fill="#E8F1FB" style="stroke:#0F69B4;stroke-width:0.5;" rx="2.5" ry="2.5"/><rect x="126.379" y="79" width="15" height="10" fill="#E8F1FB" style="stroke:#0F69B4;stroke-width:0.5;"/><rect x="124.379" y="81" width="4" height="2" fill="#E8F1FB" style="stroke:#0F69B4;stroke-width:0.5;"/><rect x="124.379" y="85" width="4" height="2" fill="#E8F1FB" style="stroke:#0F69B4;stroke-width:0.5;"/><text x="42.63" y="104.01" fill="#000" font-size="13" textLength="72.249" font-family="Helvetica">Ficha clínica</text><text x="42.63" y="117.01" fill="#000" font-size="13" textLength="78.749" font-family="Helvetica">hospital (HIS)</text></g><!--entity APS--><g class="entity" data-qualified-name="EST.APS" id="ent0003" data-source-line="26"><rect x="206.18" y="74" width="121.631" height="56" fill="#E8F1FB" style="stroke:#0F69B4;stroke-width:0.5;" rx="2.5" ry="2.5"/><rect x="307.811" y="79" width="15" height="10" fill="#E8F1FB" style="stroke:#0F69B4;stroke-width:0.5;"/><rect x="305.811" y="81" width="4" height="2" fill="#E8F1FB" style="stroke:#0F69B4;stroke-width:0.5;"/><rect x="305.811" y="85" width="4" height="2" fill="#E8F1FB" style="stroke:#0F69B4;stroke-width:0.5;"/><text x="221.18" y="104.01" fill="#000" font-size="13" textLength="61.414" font-family="Helvetica">Ficha APS</text><text x="221.18" y="117.01" fill="#000" font-size="13" textLength="81.631" font-family="Helvetica">(p.ej. RAYEN)</text></g><!--entity VAL--><g class="entity" data-qualified-name="CAPA.VAL" id="ent0005" data-source-line="29"><rect x="36.13" y="245" width="165.734" height="56" fill="#E8F1FB" style="stroke:#0F69B4;stroke-width:0.5;" rx="2.5" ry="2.5"/><rect x="181.864" y="250" width="15" height="10" fill="#E8F1FB" style="stroke:#0F69B4;stroke-width:0.5;"/><rect x="179.864" y="252" width="4" height="2" fill="#E8F1FB" style="stroke:#0F69B4;stroke-width:0.5;"/><rect x="179.864" y="256" width="4" height="2" fill="#E8F1FB" style="stroke:#0F69B4;stroke-width:0.5;"/><text x="51.13" y="275.01" fill="#000" font-size="13" textLength="88.867" font-family="Helvetica">Validador FHIR</text><text x="51.13" y="288.01" fill="#000" font-size="13" textLength="125.734" font-family="Helvetica">(perfiles de esta guía)</text></g><!--entity TX--><g class="entity" data-qualified-name="CAPA.TX" id="ent0006" data-source-line="30"><path d="M300.33,255.5 C300.33,245.5 374.997,245.5 374.997,245.5 C374.997,245.5 449.663,245.5 449.663,255.5 L449.663,290.5 C449.663,300.5 374.997,300.5 374.997,300.5 C374.997,300.5 300.33,300.5 300.33,290.5 L300.33,255.5" style="stroke:#3B7D3B;stroke-width:0.5;" fill="#EEF6EE"/><path d="M300.33,255.5 C300.33,265.5 374.997,265.5 374.997,265.5 C374.997,265.5 449.663,265.5 449.663,255.5" style="stroke:#3B7D3B;stroke-width:0.5;" fill="none"/><text x="310.33" y="279.51" fill="#000" font-size="13" textLength="129.333" font-family="Helvetica">Servidor terminológico</text><text x="310.33" y="292.51" fill="#000" font-size="13" textLength="111.268" font-family="Helvetica">(catálogo SIGGES)</text></g><!--entity TR--><g class="entity" data-qualified-name="CAPA.TR" id="ent0007" data-source-line="31"><rect x="37.03" y="358" width="159.939" height="69" fill="#E8F1FB" style="stroke:#0F69B4;stroke-width:0.5;" rx="2.5" ry="2.5"/><rect x="176.969" y="363" width="15" height="10" fill="#E8F1FB" style="stroke:#0F69B4;stroke-width:0.5;"/><rect x="174.969" y="365" width="4" height="2" fill="#E8F1FB" style="stroke:#0F69B4;stroke-width:0.5;"/><rect x="174.969" y="369" width="4" height="2" fill="#E8F1FB" style="stroke:#0F69B4;stroke-width:0.5;"/><text x="52.03" y="388.01" fill="#000" font-size="13" textLength="115.629" font-family="Helvetica">Canal de traducción</text><text x="52.03" y="401.01" fill="#000" font-size="13" textLength="99.69" font-family="Helvetica">FHIR → API v1.5</text><text x="52.03" y="414.01" fill="#000" font-size="13" textLength="119.939" font-family="Helvetica">(tools/fhir2sigges.py)</text></g><!--entity API--><g class="entity" data-qualified-name="FON.API" id="ent0009" data-source-line="34"><rect x="22.56" y="531" width="188.872" height="56" fill="#E8F1FB" style="stroke:#0F69B4;stroke-width:0.5;" rx="2.5" ry="2.5"/><rect x="191.432" y="536" width="15" height="10" fill="#E8F1FB" style="stroke:#0F69B4;stroke-width:0.5;"/><rect x="189.432" y="538" width="4" height="2" fill="#E8F1FB" style="stroke:#0F69B4;stroke-width:0.5;"/><rect x="189.432" y="542" width="4" height="2" fill="#E8F1FB" style="stroke:#0F69B4;stroke-width:0.5;"/><text x="37.56" y="561.01" fill="#000" font-size="13" textLength="71.532" font-family="Helvetica">SIGGES 2.0</text><text x="37.56" y="574.01" fill="#000" font-size="13" textLength="148.872" font-family="Helvetica">API interoperabilidad v1.5</text></g><!--entity FHIR--><g class="entity" data-qualified-name="FON.FHIR" id="ent0010" data-source-line="35"><rect x="271.27" y="531" width="179.464" height="56" fill="#EEF6EE" style="stroke:#3B7D3B;stroke-width:0.5;" rx="2.5" ry="2.5"/><rect x="430.734" y="536" width="15" height="10" fill="#EEF6EE" style="stroke:#3B7D3B;stroke-width:0.5;"/><rect x="428.734" y="538" width="4" height="2" fill="#EEF6EE" style="stroke:#3B7D3B;stroke-width:0.5;"/><rect x="428.734" y="542" width="4" height="2" fill="#EEF6EE" style="stroke:#3B7D3B;stroke-width:0.5;"/><text x="286.27" y="561.01" fill="#000" font-size="13" textLength="71.532" font-family="Helvetica">SIGGES 2.0</text><text x="286.27" y="574.01" fill="#000" font-size="13" textLength="139.464" font-family="Helvetica">endpoint FHIR (etapa 2)</text></g><!--link HIS to VAL--><g class="link" data-entity-1="ent0002" data-entity-2="ent0005" id="lnk11" data-source-line="38" data-link-type="dependency"><path d="M65.122,134.605 C54.202,153.435 46.77,174.68 55,197 C61.63,214.99 71.226,228.004 83.846,240.994" style="stroke:#3A4A5C;stroke-width:1;" fill="none" id="HIS-VAL"/><polygon points="67.63,130.28,59.655,136.059,65.122,134.605,66.575,140.072,67.63,130.28" fill="#3A4A5C" style="stroke:#3A4A5C;stroke-width:1;stroke-linejoin:miter;stroke-miterlimit:10;"/><polygon points="87.33,244.58,83.928,235.337,83.846,240.994,78.19,240.912,87.33,244.58" fill="#3A4A5C" style="stroke:#3A4A5C;stroke-width:1;stroke-linejoin:miter;stroke-miterlimit:10;"/><text x="56" y="171.47" fill="#000" font-size="11" textLength="185.254" font-family="Helvetica">Bundle message ($process-message)</text><text x="100.744" y="182.47" fill="#000" font-size="11" textLength="95.767" font-family="Helvetica">↑ Bundle respuesta</text><text x="80.455" y="193.47" fill="#000" font-size="11" textLength="136.345" font-family="Helvetica">(MessageHeader.response)</text></g><!--link APS to VAL--><g class="link" data-entity-1="ent0003" data-entity-2="ent0005" id="lnk12" data-source-line="39" data-link-type="dependency"><path d="M269.095,135.43 C269.235,155.53 266.4,177.58 253,197 C238.84,217.51 221.578,230.728 199.738,242.178" style="stroke:#3A4A5C;stroke-width:1;" fill="none" id="APS-VAL"/><polygon points="269.06,130.43,265.123,139.458,269.095,135.43,273.123,139.402,269.06,130.43" fill="#3A4A5C" style="stroke:#3A4A5C;stroke-width:1;stroke-linejoin:miter;stroke-miterlimit:10;"/><polygon points="195.31,244.5,205.138,243.864,199.738,242.178,201.424,236.778,195.31,244.5" fill="#3A4A5C" style="stroke:#3A4A5C;stroke-width:1;stroke-linejoin:miter;stroke-miterlimit:10;"/></g><!--link VAL to TX--><g class="link" data-entity-1="ent0005" data-entity-2="ent0006" id="lnk13" data-source-line="40" data-link-type="dependency"><path d="M202.12,273 C233.65,273 264.35,273 295.08,273" style="stroke:#3A4A5C;stroke-width:1;stroke-dasharray:7,7;" fill="none" id="VAL-to-TX"/><polygon points="300.08,273,291.08,269,295.08,273,291.08,277,300.08,273" fill="#3A4A5C" style="stroke:#3A4A5C;stroke-width:1;stroke-linejoin:miter;stroke-miterlimit:10;"/><text x="237.187" y="255.47" fill="#000" font-size="11" textLength="28.741" font-family="Helvetica">valida</text><text x="232.6" y="266.47" fill="#000" font-size="11" textLength="37.915" font-family="Helvetica">códigos</text></g><!--link VAL to TR--><g class="link" data-entity-1="ent0005" data-entity-2="ent0007" id="lnk14" data-source-line="41" data-link-type="dependency"><path d="M118.54,301.25 C118.25,318.07 117.964,334.761 117.664,352.671" style="stroke:#3A4A5C;stroke-width:1;" fill="none" id="VAL-to-TR"/><polygon points="117.58,357.67,121.73,348.738,117.664,352.671,113.731,348.604,117.58,357.67" fill="#3A4A5C" style="stroke:#3A4A5C;stroke-width:1;stroke-linejoin:miter;stroke-miterlimit:10;"/></g><!--link TR to API--><g class="link" data-entity-1="ent0007" data-entity-2="ent0009" id="lnk15" data-source-line="42" data-link-type="dependency"><path d="M117,432.19 C117,462.74 117,497.21 117,525.62" style="stroke:#3A4A5C;stroke-width:1;" fill="none" id="TR-API"/><polygon points="117,427.19,113,436.19,117,432.19,121,436.19,117,427.19" fill="#3A4A5C" style="stroke:#3A4A5C;stroke-width:1;stroke-linejoin:miter;stroke-miterlimit:10;"/><polygon points="117,530.62,121,521.62,117,525.62,113,521.62,117,530.62" fill="#3A4A5C" style="stroke:#3A4A5C;stroke-width:1;stroke-linejoin:miter;stroke-miterlimit:10;"/><text x="120.696" y="468.47" fill="#000" font-size="11" textLength="100.869" font-family="Helvetica">JSON v1.5 (OAuth2)</text><text x="118" y="479.47" fill="#000" font-size="11" textLength="106.262" font-family="Helvetica">↑ respuesta / N° caso</text></g><!--link VAL to FHIR--><g class="link" data-entity-1="ent0005" data-entity-2="ent0010" id="lnk16" data-source-line="43" data-link-type="dependency"><path d="M160.3,301.34 C181.58,316.56 207.16,336.71 227,358 C278.57,413.35 321.783,486.033 344.093,526.433" style="stroke:#3A4A5C;stroke-width:1;stroke-dasharray:7,7;" fill="none" id="VAL-to-FHIR"/><polygon points="346.51,530.81,345.661,520.998,344.093,526.433,338.658,524.865,346.51,530.81" fill="#3A4A5C" style="stroke:#3A4A5C;stroke-width:1;stroke-linejoin:miter;stroke-miterlimit:10;"/><text x="313.136" y="389.97" fill="#000" font-size="11" textLength="39.757" font-family="Helvetica">etapa 2:</text><text x="299.08" y="400.97" fill="#000" font-size="11" textLength="67.869" font-family="Helvetica">sin traducción</text></g><!--link HIS to APS--><!--link API to FHIR--><?plantuml-src TLFDRjD04BxxAKQ5GogKj4b_Q4DLoGb94mHjbPGAH3XixQcpTBDZTZSf1N7b0NW3ZXmg8VKDo9lm9CpQ9dL3UtDcv_kPRoRsGkfK63616C_5LBakQNSe9WWzL3DqCXA1lQzdA3yZr3TAZtOiOhgKEe5peIoMNWnDTTmcez70LgckAKQBAMolbvk5ll35hN9dQ0nTjacHWKSRuMQurLv-lFLKBvDXv8HE5CAN0A159aPJqEo6uKvhXwiPqbrnpncfEFXQWaSqIKcZTZbSH1T9CKj6qTdfrhkjPUBrxlPkQ_CEJooSE1CM7w3fTBSxdMMQZTRJvnijfd6KWYCsvnmnbVGpITA1auuzjzazVdBKX8zJEV-fOIpEb63dkYW4mMq8AntBHXH6SY9vAh8h82nqXYUPiTjfLxeo6ZE9cbzhle2H7fDDfHCAAht-S3L3ySTzcF1uEDALj8OVQZ08ttOEysukyoWb9ssH2huda6pVK8f6d4abOn53XS-2WAj6EZAIHTT0onagY5Z729KpjiFZSDdsgSWeEBvkhp_mFj2SIuNMAo7F3ibqVYroWjFm9QCNgraPefb9ZsNfYTIavZU9Z8XP8k7cFnGb1CF-mK6d2E3apLtnjj3ibONOOpoD8Zc_qIFjZS2VRzyvWJxCwhKjvdD4ogwTZwLfM9aaQ6lfLS4vk9jIz-Wm78RP4tykZvkxWKPjVQGz_VzPUi4Y__x3MDHnIWpEKeCAEh-RHkueAnKd-an9ZSt5OGPy0h1NhUxxAA49BJvfDZr1QqM2K7cS6ehuHxMeh8xqtkidZVfkVVzVhq6RJlrYE9LNULSF1Vy9Qlw5jCNLW4zdeH9ufQgHoTZLQlky0fQTPKiVwMX-4yk4RDx3_HpcoI27-dIQy6B86Vf8e78KJjsuKNQqiCBdTlZx5qJ2KaRbXR8Kcb0aqnnfAtLvpraKrNTZ6SUetsV-gjdDU-7bkYVx2m00?></g></svg>