<svg xmlns="http://www.w3.org/2000/svg" xmlns:xlink="http://www.w3.org/1999/xlink" version="1.1" data-diagram-type="CLASS" style="width:948px;height:887px;background:#FFFFFF;" width="948px" height="887px" viewBox="0 0 948 887" zoomAndPan="magnify" preserveAspectRatio="none" contentStyleType="text/css"><?plantuml 1.2026.8?><defs/><g font-family="sans-serif" lengthAdjust="spacing"><g class="title" data-source-line="8"><text x="277.009" y="20.78" fill="#000" font-size="14" textLength="386.982" font-weight="700" font-family="Helvetica">Modelo de recursos: núcleo común + foco por documento</text></g><!--cluster SOBRE--><g class="cluster" data-qualified-name="SOBRE" id="ent0001" data-source-line="10"><rect x="582" y="42" width="352" height="188" fill="#F5F8FC" style="stroke:#000;stroke-width:1.5;" rx="2.5" ry="2.5"/><text x="739.579" y="54.01" fill="#000" font-size="13" textLength="36.842" font-weight="700" font-family="Helvetica">Sobre</text></g><!--cluster NUCLEO--><g class="cluster" data-qualified-name="NUCLEO" id="ent0004" data-source-line="17"><rect x="398" y="633" width="416" height="240" fill="#F2FAF5" style="stroke:#000;stroke-width:1.5;" rx="2.5" ry="2.5"/><text x="465.126" y="645.01" fill="#000" font-size="13" textLength="281.747" font-weight="700" font-family="Helvetica">Núcleo común — viaja en todos los mensajes</text></g><!--cluster FOCO--><g class="cluster" data-qualified-name="FOCO" id="ent0010" data-source-line="28"><rect x="7" y="283" width="676" height="301" fill="#FBF5FC" style="stroke:#000;stroke-width:1.5;" rx="2.5" ry="2.5"/><text x="200.54" y="295.01" fill="#000" font-size="13" textLength="288.92" font-weight="700" font-family="Helvetica">Foco — uno por mensaje, según el documento</text></g><!--class B--><g class="entity" data-qualified-name="SOBRE.B" id="ent0002" data-source-line="11"><rect x="687.44" y="74" width="141.129" height="36" fill="#E8F1FB" style="stroke:#0F69B4;stroke-width:0.5;" rx="2.5" ry="2.5"/><text x="703.469" y="89.01" fill="#000" font-size="13" textLength="44.053" font-weight="700" font-family="Helvetica">Bundle</text><text x="751.133" y="89.01" fill="#000" font-size="13" textLength="61.407" font-family="Helvetica">(message)</text><text x="690.44" y="102.01" fill="#000" font-size="13" textLength="135.129" font-family="Helvetica">BundleNotificacionGES</text></g><!--class MH--><g class="entity" data-qualified-name="SOBRE.MH" id="ent0003" data-source-line="12"><rect x="597.57" y="157" width="320.852" height="57" fill="#E8F1FB" style="stroke:#0F69B4;stroke-width:0.5;" rx="2.5" ry="2.5"/><text x="708.497" y="172.01" fill="#000" font-size="13" textLength="98.998" font-weight="700" font-family="Helvetica">MessageHeader</text><text x="686.102" y="185.01" fill="#000" font-size="13" textLength="143.787" font-family="Helvetica">MensajeNotificacionGES</text><line x1="598.57" y1="193" x2="917.422" y2="193" style="stroke:#0F69B4;stroke-width:0.5;"/><text x="603.57" y="207.01" fill="#000" font-size="13" textLength="308.852" font-family="Helvetica">eventCoding = SIC · IPD · OA · PO · CC · EXGO · HD</text></g><!--class C--><g class="entity" data-qualified-name="NUCLEO.C" id="ent0005" data-source-line="18"><rect x="434.3" y="673" width="163.392" height="70" fill="#E8F1FB" style="stroke:#0F69B4;stroke-width:0.5;" rx="2.5" ry="2.5"/><text x="469.039" y="688.01" fill="#000" font-size="13" textLength="93.914" font-weight="700" font-family="Helvetica">EpisodeOfCare</text><text x="487.095" y="701.01" fill="#000" font-size="13" textLength="57.802" font-family="Helvetica">CasoGES</text><line x1="435.3" y1="709" x2="596.692" y2="709" style="stroke:#0F69B4;stroke-width:0.5;"/><text x="440.3" y="723.01" fill="#000" font-size="13" textLength="140.309" font-family="Helvetica">N° caso SIGGES o local</text><text x="440.3" y="736.01" fill="#000" font-size="13" textLength="151.392" font-family="Helvetica">problema de salud + rama</text></g><!--class P--><g class="entity" data-qualified-name="NUCLEO.P" id="ent0006" data-source-line="22"><rect x="421.98" y="813" width="84.044" height="36" fill="#E8F1FB" style="stroke:#0F69B4;stroke-width:0.5;" rx="2.5" ry="2.5"/><text x="442.331" y="828.01" fill="#000" font-size="13" textLength="43.342" font-weight="700" font-family="Helvetica">Patient</text><text x="424.98" y="841.01" fill="#000" font-size="13" textLength="78.044" font-family="Helvetica">PacienteGES</text></g><!--class O--><g class="entity" data-qualified-name="NUCLEO.O" id="ent0007" data-source-line="23"><rect x="536.39" y="813" width="125.222" height="36" fill="#E8F1FB" style="stroke:#0F69B4;stroke-width:0.5;" rx="2.5" ry="2.5"/><text x="559.277" y="828.01" fill="#000" font-size="13" textLength="79.447" font-weight="700" font-family="Helvetica">Organization</text><text x="539.39" y="841.01" fill="#000" font-size="13" textLength="119.222" font-family="Helvetica">EstablecimientoGES</text></g><!--class R--><g class="entity" data-qualified-name="NUCLEO.R" id="ent0008" data-source-line="24"><rect x="647.79" y="690" width="106.414" height="36" fill="#E8F1FB" style="stroke:#0F69B4;stroke-width:0.5;" rx="2.5" ry="2.5"/><text x="650.79" y="705.01" fill="#000" font-size="13" textLength="100.414" font-weight="700" font-family="Helvetica">PractitionerRole</text><text x="658.01" y="718.01" fill="#000" font-size="13" textLength="85.973" font-family="Helvetica">RolClinicoGES</text></g><!--class PR--><g class="entity" data-qualified-name="NUCLEO.PR" id="ent0009" data-source-line="25"><rect x="692.09" y="813" width="89.814" height="36" fill="#E8F1FB" style="stroke:#0F69B4;stroke-width:0.5;" rx="2.5" ry="2.5"/><text x="700.876" y="828.01" fill="#000" font-size="13" textLength="72.243" font-weight="700" font-family="Helvetica">Practitioner</text><text x="695.09" y="841.01" fill="#000" font-size="13" textLength="83.814" font-family="Helvetica">PrestadorGES</text></g><!--class SIC--><g class="entity" data-qualified-name="FOCO.SIC" id="ent0011" data-source-line="29"><rect x="31.49" y="323" width="157.023" height="36" fill="#E8F1FB" style="stroke:#0F69B4;stroke-width:0.5;" rx="2.5" ry="2.5"/><text x="61.226" y="338.01" fill="#000" font-size="13" textLength="97.551" font-weight="700" font-family="Helvetica">ServiceRequest</text><text x="34.49" y="351.01" fill="#000" font-size="13" textLength="151.023" font-family="Helvetica">SolicitudInterconsultaGES</text></g><!--class CO--><g class="entity" data-qualified-name="FOCO.CO" id="ent0012" data-source-line="30"><rect x="35.25" y="418" width="163.498" height="36" fill="#E8F1FB" style="stroke:#0F69B4;stroke-width:0.5;" rx="2.5" ry="2.5"/><text x="86.676" y="433.01" fill="#000" font-size="13" textLength="60.646" font-weight="700" font-family="Helvetica">Condition</text><text x="38.25" y="446.01" fill="#000" font-size="13" textLength="157.498" font-family="Helvetica">DiagnosticoGES · IPD · HD</text></g><!--class OA--><g class="entity" data-qualified-name="FOCO.OA" id="ent0013" data-source-line="31"><rect x="232.91" y="418" width="120.175" height="36" fill="#E8F1FB" style="stroke:#0F69B4;stroke-width:0.5;" rx="2.5" ry="2.5"/><text x="244.222" y="433.01" fill="#000" font-size="13" textLength="97.551" font-weight="700" font-family="Helvetica">ServiceRequest</text><text x="235.91" y="446.01" fill="#000" font-size="13" textLength="114.175" font-family="Helvetica">OrdenAtencionGES</text></g><!--class PO--><g class="entity" data-qualified-name="FOCO.PO" id="ent0014" data-source-line="32"><rect x="218.46" y="323" width="149.076" height="36" fill="#E8F1FB" style="stroke:#0F69B4;stroke-width:0.5;" rx="2.5" ry="2.5"/><text x="260.847" y="338.01" fill="#000" font-size="13" textLength="64.302" font-weight="700" font-family="Helvetica">Procedure</text><text x="221.46" y="351.01" fill="#000" font-size="13" textLength="143.076" font-family="Helvetica">PrestacionOtorgadaGES</text></g><!--class OB--><g class="entity" data-qualified-name="FOCO.OB" id="ent0015" data-source-line="33"><rect x="237.97" y="524" width="110.051" height="36" fill="#E8F1FB" style="stroke:#0F69B4;stroke-width:0.5;" rx="2.5" ry="2.5"/><text x="255.068" y="539.01" fill="#000" font-size="13" textLength="75.854" font-weight="700" font-family="Helvetica">Observation</text><text x="240.97" y="552.01" fill="#000" font-size="13" textLength="104.051" font-family="Helvetica">DatoEspecialGES</text></g><!--class T--><g class="entity" data-qualified-name="FOCO.T" id="ent0016" data-source-line="34"><rect x="397.34" y="323" width="247.325" height="36" fill="#E8F1FB" style="stroke:#0F69B4;stroke-width:0.5;" rx="2.5" ry="2.5"/><text x="506.187" y="338.01" fill="#000" font-size="13" textLength="29.631" font-weight="700" font-family="Helvetica">Task</text><text x="400.34" y="351.01" fill="#000" font-size="13" textLength="241.325" font-family="Helvetica">CierreCasoGES · ExcepcionGarantiaGES</text></g><!--reverse link B to MH--><g class="link" data-entity-1="ent0002" data-entity-2="ent0003" id="lnk17" data-source-line="37" data-link-type="composition"><path d="M758,122.21 C758,135.26 758,141.46 758,156.58" style="stroke:#3A4A5C;stroke-width:1;" fill="none" id="B-backto-MH" codeLine="37"/><polygon points="758,110.21,754,116.21,758,122.21,762,116.21,758,110.21" fill="#3A4A5C" style="stroke:#3A4A5C;stroke-width:1;stroke-linejoin:miter;stroke-miterlimit:10;"/></g><!--link MH to FOCO--><g class="link" data-entity-1="ent0003" data-entity-2="ent0010" id="lnk18" data-source-line="38" data-link-type="dependency"><path d="M742.97,214.3 C731.195,236.07 714.545,266.86 700.671,292.518 C697.203,298.932 693.908,305.025 690.906,310.577 C689.405,313.353 687.977,315.993 686.638,318.471 C685.968,319.709 685.321,320.907 684.697,322.061 C684.385,322.637 684.079,323.203 683.779,323.757 C683.63,324.035 683.481,324.309 683.335,324.58 C683.261,324.716 685.566,320.453 685.494,320.587" style="stroke:#3A4A5C;stroke-width:1;" fill="none" id="MH-to-FOCO" codeLine="38"/><polygon points="683.116,324.985,690.915,318.971,685.494,320.587,683.878,315.166,683.116,324.985" fill="#3A4A5C" style="stroke:#3A4A5C;stroke-width:1;stroke-linejoin:miter;stroke-miterlimit:10;"/><text x="724.93" y="255.47" fill="#000" font-size="11" textLength="38.521" font-family="Helvetica">focus[0]</text></g><!--link MH to NUCLEO--><g class="link" data-entity-1="ent0003" data-entity-2="ent0004" id="lnk19" data-source-line="39" data-link-type="dependency"><path d="M772.27,214.26 C786.42,244.4 806,294.35 806,340 C806,340 806,340 806,543 C806,560.938 806,579.979 806,598.494 C806,607.752 806,616.878 806,625.669 C806,627.867 806,625.043 806,627.196" style="stroke:#3A4A5C;stroke-width:1;" fill="none" id="MH-to-NUCLEO" codeLine="39"/><polygon points="806,632.196,810,623.196,806,627.196,802,623.196,806,632.196" fill="#3A4A5C" style="stroke:#3A4A5C;stroke-width:1;stroke-linejoin:miter;stroke-miterlimit:10;"/><text x="807" y="438.97" fill="#000" font-size="11" textLength="121.682" font-family="Helvetica">focus[1] · author · sender</text></g><!--link SIC to CO--><g class="link" data-entity-1="ent0011" data-entity-2="ent0012" id="lnk20" data-source-line="41" data-link-type="dependency"><path d="M111.32,359.49 C112.57,376.12 114.065,395.994 115.315,412.604" style="stroke:#3A4A5C;stroke-width:1;" fill="none" id="SIC-to-CO" codeLine="41"/><polygon points="115.69,417.59,119.003,408.315,115.315,412.604,111.026,408.916,115.69,417.59" fill="#3A4A5C" style="stroke:#3A4A5C;stroke-width:1;stroke-linejoin:miter;stroke-miterlimit:10;"/><text x="114.92" y="391.47" fill="#000" font-size="11" textLength="84.385" font-family="Helvetica">reasonReference</text></g><!--link PO to OA--><g class="link" data-entity-1="ent0014" data-entity-2="ent0013" id="lnk21" data-source-line="42" data-link-type="dependency"><path d="M293,359.49 C293,376.12 293,395.98 293,412.59" style="stroke:#3A4A5C;stroke-width:1;" fill="none" id="PO-to-OA" codeLine="42"/><polygon points="293,417.59,297,408.59,293,412.59,289,408.59,293,417.59" fill="#3A4A5C" style="stroke:#3A4A5C;stroke-width:1;stroke-linejoin:miter;stroke-miterlimit:10;"/><text x="294" y="391.47" fill="#000" font-size="11" textLength="44.645" font-family="Helvetica">basedOn</text></g><!--link CO to OB--><g class="link" data-entity-1="ent0012" data-entity-2="ent0015" id="lnk22" data-source-line="43" data-link-type="dependency"><path d="M146.46,454.41 C178.95,473.61 226.615,501.777 259.145,520.997" style="stroke:#3A4A5C;stroke-width:1;" fill="none" id="CO-to-OB" codeLine="43"/><polygon points="263.45,523.54,257.736,515.518,259.145,520.997,253.667,522.406,263.45,523.54" fill="#3A4A5C" style="stroke:#3A4A5C;stroke-width:1;stroke-linejoin:miter;stroke-miterlimit:10;"/><text x="221.76" y="491.97" fill="#000" font-size="11" textLength="44.032" font-family="Helvetica">evidence</text></g><!--link OA to OB--><g class="link" data-entity-1="ent0013" data-entity-2="ent0015" id="lnk23" data-source-line="44" data-link-type="dependency"><path d="M293,454.17 C293,473.44 293,499.52 293,518.8" style="stroke:#3A4A5C;stroke-width:1;" fill="none" id="OA-to-OB" codeLine="44"/><polygon points="293,523.8,297,514.8,293,518.8,289,514.8,293,523.8" fill="#3A4A5C" style="stroke:#3A4A5C;stroke-width:1;stroke-linejoin:miter;stroke-miterlimit:10;"/><text x="294" y="491.97" fill="#000" font-size="11" textLength="69.717" font-family="Helvetica">supportingInfo</text></g><!--link SIC to PO--><!--link PO to T--><!--link OB to C--><!--link C to P--><g class="link" data-entity-1="ent0005" data-entity-2="ent0006" id="lnk27" data-source-line="49" data-link-type="dependency"><path d="M501.24,743.35 C491.51,765.99 481.153,790.076 473.413,808.096" style="stroke:#3A4A5C;stroke-width:1;" fill="none" id="C-to-P" codeLine="49"/><polygon points="471.44,812.69,478.667,805.999,473.413,808.096,471.317,802.842,471.44,812.69" fill="#3A4A5C" style="stroke:#3A4A5C;stroke-width:1;stroke-linejoin:miter;stroke-miterlimit:10;"/></g><!--link C to O--><g class="link" data-entity-1="ent0005" data-entity-2="ent0007" id="lnk28" data-source-line="50" data-link-type="dependency"><path d="M539.56,743.35 C555.09,765.99 571.943,790.546 584.293,808.566" style="stroke:#3A4A5C;stroke-width:1;" fill="none" id="C-to-O" codeLine="50"/><polygon points="587.12,812.69,585.332,803.005,584.293,808.566,578.733,807.527,587.12,812.69" fill="#3A4A5C" style="stroke:#3A4A5C;stroke-width:1;stroke-linejoin:miter;stroke-miterlimit:10;"/><text x="577.808" y="775.47" fill="#000" font-size="11" textLength="48.313" font-family="Helvetica">managing</text><text x="570.78" y="786.47" fill="#000" font-size="11" textLength="62.369" font-family="Helvetica">Organization</text></g><!--link R to O--><g class="link" data-entity-1="ent0008" data-entity-2="ent0007" id="lnk29" data-source-line="51" data-link-type="dependency"><path d="M689.4,726.41 C677.87,743.28 659.31,769.28 641,790 C634.07,797.85 629.491,802.514 622.161,809.334" style="stroke:#3A4A5C;stroke-width:1;" fill="none" id="R-to-O" codeLine="51"/><polygon points="618.5,812.74,627.814,809.538,622.161,809.334,622.364,803.681,618.5,812.74" fill="#3A4A5C" style="stroke:#3A4A5C;stroke-width:1;stroke-linejoin:miter;stroke-miterlimit:10;"/></g><!--link R to PR--><g class="link" data-entity-1="ent0008" data-entity-2="ent0009" id="lnk30" data-source-line="52" data-link-type="dependency"><path d="M706.16,726.34 C713,749.34 723.584,784.918 730.424,807.908" style="stroke:#3A4A5C;stroke-width:1;" fill="none" id="R-to-PR" codeLine="52"/><polygon points="731.85,812.7,733.117,802.933,730.424,807.908,725.45,805.214,731.85,812.7" fill="#3A4A5C" style="stroke:#3A4A5C;stroke-width:1;stroke-linejoin:miter;stroke-miterlimit:10;"/></g><!--link FOCO to C--><g class="link" data-entity-1="ent0010" data-entity-2="ent0005" id="lnk31" data-source-line="54" data-link-type="dependency"><path d="M683.105,380.843 C683.304,382.03 683.503,383.238 683.702,384.468 C684.495,389.386 685.274,394.638 686.007,400.173 C687.472,411.243 688.748,423.445 689.565,436.369 C692.833,488.065 688.75,551.325 660,600 C652.79,612.21 644.63,608.89 633,617 C607.77,634.59 584.418,652.367 562.548,669.587" style="stroke:#3A4A5C;stroke-width:1;stroke-dasharray:7,7;" fill="none" id="FOCO-to-C" codeLine="54"/><polygon points="558.62,672.68,568.166,670.255,562.548,669.587,563.217,663.97,558.62,672.68" fill="#3A4A5C" style="stroke:#3A4A5C;stroke-width:1;stroke-linejoin:miter;stroke-miterlimit:10;"/><text x="691.29" y="486.47" fill="#000" font-size="11" textLength="84.998" font-family="Helvetica">todos referencian</text><text x="716.362" y="497.47" fill="#000" font-size="11" textLength="34.853" font-family="Helvetica">el caso</text></g><?plantuml-src VLJDRjj64BxpAQRk9LKh8qbZe33G0XObsGPYKv1Se41i5AFbIDvuESliBjquGO0yH1wajm8v9c_I9-diacAeeEs1N79sVhxzvflzHhCoJKdmE_cWZJtKJMMoMoqMgkhm01LLQtA-DIdjbA7ssmToPCD3JPc_qroZmmhObkIfXXyV3umE-IuQdnqDZ3MgEzpIAZmO0aSg86ybTT11_YyaZR5Gfft6UUkFWJz_bDeMbAq-VsJu7ZPMMQYjWzAgfY8EDikwh72micj71u0ULiLaEODlvqVpd-OvlCq0b47luM0qcZHS6XgDu555talSTzVSsYvjq1kjK6dBfxDLIZGPXbwq0MU49RdHw9elY3s-_DV0YxDK5e3k1MLkIyrR-1bMvpby-WlE5zEu52VnlIZYEqyRizzEqz_PL8BVPUy6fxlSv-Blzn_WNkDB1688jhGUZ3nL2yad49U_vizdXV3mT7uoFzhdOLPhBumNcnmTnSFawEqEVTw1l_pq9oYn2-vJsGChDHIQj5SxkpPKOUoOHz6Jj4UQZ0dueD02WnOAOec5K2IVj2kp6FeLRekituYtvUWyym6bWD9LZEcX5Nkv7IfHZqIGMrgJpY5hRZHhrOSi_oiaON8o15XQruDQxj4-ZugBP3VSAgzZ-0Vmj8sD8FD5Z2d1lCWZvnDHtrVQMv6xrugMzAgHeh7woXgjT6ZASw75ASk-CG5tK4Gjm_3SSgbtz4mrRjdA_APp3aHrDcrRMFn_vSALn2U1UAZQucIVAgkeR5fvj3n5vo9OQLNPerpiLIhMNchrNPnYi3DVInlHz5NsfkeA_LtIdoRdg5DXceNNYkg4JYuF3helU1KRD87HU2nZbicaZSU_jAmVnmkYyIyUt-pCtGZiDfxSnCpOX5lff7nvOfdbB8jp6TrJ3aS2WfUqaSkE5MKoe75FflKOrkYfB3ZBEzj4R7GlTsDq58_Uw9jQr19axCzvOzi2B-GI5SyRfxUtOHo9Ywc_ibvbcIJehQNzWyUGPos-HRT6c1KoRYL_xEMNqScMhKEtYfgpHCtXePnEejghmdM7qyZNB0gEG_uF?></g></svg>