<svg xmlns="http://www.w3.org/2000/svg" xmlns:xlink="http://www.w3.org/1999/xlink" version="1.1" data-diagram-type="DESCRIPTION" style="width:1050px;height:370px;background:#FFFFFF;" width="1050px" height="370px" viewBox="0 0 1050 370" zoomAndPan="magnify" preserveAspectRatio="none" contentStyleType="text/css"><?plantuml 1.2026.8?><defs/><g font-family="sans-serif" lengthAdjust="spacing"><g class="title" data-source-line="16"><text x="316.823" y="23.563" fill="#000" font-size="14" textLength="409.814" font-weight="700" font-family="'Helvetica'">Quién emite qué: eventos TEI y documentos SIGGES (D-017)</text></g><!--cluster Establecimiento--><g class="cluster" data-qualified-name="Establecimiento" id="ent0001" data-source-line="17"><rect x="7" y="44.939" width="261" height="312" fill="none" style="stroke:#9AA8B8;stroke-width:1;" rx="4" ry="4"/><text x="90.388" y="58.564" fill="#000" font-size="12" textLength="94.225" font-weight="700" font-family="'Helvetica'">Establecimiento</text></g><!--cluster Capa de interoperabilidad--><g class="cluster" data-qualified-name="Capa de interoperabilidad" id="ent0005" data-source-line="22"><rect x="301" y="44.939" width="538" height="203" fill="none" style="stroke:#9AA8B8;stroke-width:1;" rx="4" ry="4"/><text x="494.367" y="58.564" fill="#000" font-size="12" textLength="151.266" font-weight="700" font-family="'Helvetica'">Capa de interoperabilidad</text></g><!--entity INI--><g class="entity" data-qualified-name="Establecimiento.INI" id="ent0002" data-source-line="18"><rect x="23" y="78.439" width="229.176" height="59.039" fill="#E8F1FB" style="stroke:#0F69B4;stroke-width:0.5;" rx="4" ry="4"/><rect x="232.176" y="83.439" width="15" height="10" fill="#E8F1FB" style="stroke:#0F69B4;stroke-width:0.5;"/><rect x="230.176" y="85.439" width="4" height="2" fill="#E8F1FB" style="stroke:#0F69B4;stroke-width:0.5;"/><rect x="230.176" y="89.439" width="4" height="2" fill="#E8F1FB" style="stroke:#0F69B4;stroke-width:0.5;"/><text x="38" y="110.064" fill="#000" font-size="12" textLength="60.721" font-family="'Helvetica'">Evento TEI</text><text x="102.096" y="110.064" fill="#000" font-size="12" textLength="36.141" font-weight="700" font-family="'Helvetica'">iniciar</text><text x="38" y="124.584" fill="#000" font-size="12" textLength="189.176" font-family="'Helvetica'">(ServiceRequestLE + marca GES)</text></g><!--entity ATE--><g class="entity" data-qualified-name="Establecimiento.ATE" id="ent0003" data-source-line="19"><rect x="54.5" y="172.439" width="165.883" height="59.039" fill="#E8F1FB" style="stroke:#0F69B4;stroke-width:0.5;" rx="4" ry="4"/><rect x="200.383" y="177.439" width="15" height="10" fill="#E8F1FB" style="stroke:#0F69B4;stroke-width:0.5;"/><rect x="198.383" y="179.439" width="4" height="2" fill="#E8F1FB" style="stroke:#0F69B4;stroke-width:0.5;"/><rect x="198.383" y="183.439" width="4" height="2" fill="#E8F1FB" style="stroke:#0F69B4;stroke-width:0.5;"/><text x="69.5" y="204.064" fill="#000" font-size="12" textLength="60.721" font-family="'Helvetica'">Evento TEI</text><text x="133.596" y="204.064" fill="#000" font-size="12" textLength="45.58" font-weight="700" font-family="'Helvetica'">atender</text><text x="69.5" y="218.584" fill="#000" font-size="12" textLength="125.883" font-family="'Helvetica'">(EncounterAtenderLE)</text></g><!--entity GES--><g class="entity" data-qualified-name="Establecimiento.GES" id="ent0004" data-source-line="20"><rect x="26" y="266.939" width="223.475" height="73.559" fill="#E8F1FB" style="stroke:#0F69B4;stroke-width:0.5;" rx="4" ry="4"/><rect x="229.475" y="271.939" width="15" height="10" fill="#E8F1FB" style="stroke:#0F69B4;stroke-width:0.5;"/><rect x="227.475" y="273.939" width="4" height="2" fill="#E8F1FB" style="stroke:#0F69B4;stroke-width:0.5;"/><rect x="227.475" y="277.939" width="4" height="2" fill="#E8F1FB" style="stroke:#0F69B4;stroke-width:0.5;"/><text x="41" y="298.564" fill="#000" font-size="12" textLength="111.85" font-family="'Helvetica'">Bundle de esta guía</text><text x="41" y="313.084" fill="#000" font-size="12" textLength="183.475" font-family="'Helvetica'">IPD · OA · PO de procedimientos</text><text x="41" y="327.604" fill="#000" font-size="12" textLength="89.051" font-family="'Helvetica'">EXGO · CC · HD</text></g><!--entity DSIC--><g class="entity" data-qualified-name="Capa de interoperabilidad.DSIC" id="ent0006" data-source-line="23"><rect x="317" y="78.439" width="282.59" height="59.039" fill="#FFF3E0" style="stroke:#0F69B4;stroke-width:0.5;" rx="4" ry="4"/><rect x="579.59" y="83.439" width="15" height="10" fill="#FFF3E0" style="stroke:#0F69B4;stroke-width:0.5;"/><rect x="577.59" y="85.439" width="4" height="2" fill="#FFF3E0" style="stroke:#0F69B4;stroke-width:0.5;"/><rect x="577.59" y="89.439" width="4" height="2" fill="#FFF3E0" style="stroke:#0F69B4;stroke-width:0.5;"/><text x="332" y="110.064" fill="#000" font-size="12" textLength="36.563" font-family="'Helvetica'">Deriva</text><text x="371.938" y="110.064" fill="#000" font-size="12" textLength="20.104" font-weight="700" font-family="'Helvetica'">SIC</text><text x="332" y="124.584" fill="#000" font-size="12" textLength="242.59" font-family="'Helvetica'">(requiere PS y rama estructurados, D-020)</text></g><!--entity DPO--><g class="entity" data-qualified-name="Capa de interoperabilidad.DPO" id="ent0007" data-source-line="24"><rect x="336.5" y="172.439" width="243.924" height="59.039" fill="#FFF3E0" style="stroke:#0F69B4;stroke-width:0.5;" rx="4" ry="4"/><rect x="560.424" y="177.439" width="15" height="10" fill="#FFF3E0" style="stroke:#0F69B4;stroke-width:0.5;"/><rect x="558.424" y="179.439" width="4" height="2" fill="#FFF3E0" style="stroke:#0F69B4;stroke-width:0.5;"/><rect x="558.424" y="183.439" width="4" height="2" fill="#FFF3E0" style="stroke:#0F69B4;stroke-width:0.5;"/><text x="351.5" y="204.064" fill="#000" font-size="12" textLength="36.563" font-family="'Helvetica'">Deriva</text><text x="391.438" y="204.064" fill="#000" font-size="12" textLength="88.113" font-weight="700" font-family="'Helvetica'">PO de consulta</text><text x="351.5" y="218.584" fill="#000" font-size="12" textLength="203.924" font-family="'Helvetica'">(requiere regla de prestación, P-20)</text></g><!--entity TR--><g class="entity" data-qualified-name="Capa de interoperabilidad.TR" id="ent0008" data-source-line="25"><rect x="661" y="172.439" width="161.752" height="59.039" fill="#E8F1FB" style="stroke:#0F69B4;stroke-width:0.5;" rx="4" ry="4"/><rect x="802.752" y="177.439" width="15" height="10" fill="#E8F1FB" style="stroke:#0F69B4;stroke-width:0.5;"/><rect x="800.752" y="179.439" width="4" height="2" fill="#E8F1FB" style="stroke:#0F69B4;stroke-width:0.5;"/><rect x="800.752" y="183.439" width="4" height="2" fill="#E8F1FB" style="stroke:#0F69B4;stroke-width:0.5;"/><text x="676" y="204.064" fill="#000" font-size="12" textLength="91.887" font-family="'Helvetica'">Valida y traduce</text><text x="676" y="218.584" fill="#000" font-size="12" textLength="121.752" font-family="'Helvetica'">(tools/fhir2sigges.py)</text></g><!--entity SIG--><g class="entity" data-qualified-name="SIG" id="ent0009" data-source-line="27"><path d="M940,182.939 C940,172.939 982.73,172.939 982.73,172.939 C982.73,172.939 1025.461,172.939 1025.461,182.939 L1025.461,220.979 C1025.461,230.979 982.73,230.979 982.73,230.979 C982.73,230.979 940,230.979 940,220.979 L940,182.939" style="stroke:#3B7D3B;stroke-width:0.5;" fill="#EEF6EE"/><path d="M940,182.939 C940,192.939 982.73,192.939 982.73,192.939 C982.73,192.939 1025.461,192.939 1025.461,182.939" style="stroke:#3B7D3B;stroke-width:0.5;" fill="none"/><text x="950" y="208.564" fill="#000" font-size="12" textLength="65.461" font-family="'Helvetica'">SIGGES 2.0</text><text x="950" y="223.084" fill="#000" font-size="12" textLength="44.918" font-family="'Helvetica'">API v1.5</text></g><!--link INI to DSIC--><g class="link" data-entity-1="ent0002" data-entity-2="ent0006" id="lnk10" data-source-line="28" data-link-type="dependency"><path d="M252.32,107.939 C273.25,107.939 290.33,107.939 311.94,107.939" style="stroke:#3A4A5C;stroke-width:1;" fill="none" id="INI-to-DSIC"/><polygon points="316.94,107.939,307.94,103.939,311.94,107.939,307.94,111.939,316.94,107.939" fill="#3A4A5C" style="stroke:#3A4A5C;stroke-width:1;stroke-linejoin:miter;stroke-miterlimit:10;"/></g><!--link ATE to DPO--><g class="link" data-entity-1="ent0003" data-entity-2="ent0007" id="lnk11" data-source-line="29" data-link-type="dependency"><path d="M220.65,201.939 C255.82,201.939 292.6,201.939 331.22,201.939" style="stroke:#3A4A5C;stroke-width:1;" fill="none" id="ATE-to-DPO"/><polygon points="336.22,201.939,327.22,197.939,331.22,201.939,327.22,205.939,336.22,201.939" fill="#3A4A5C" style="stroke:#3A4A5C;stroke-width:1;stroke-linejoin:miter;stroke-miterlimit:10;"/></g><!--link DSIC to TR--><g class="link" data-entity-1="ent0006" data-entity-2="ent0008" id="lnk12" data-source-line="30" data-link-type="dependency"><path d="M548.18,137.549 C584.28,149.609 620.957,161.856 656.127,173.596" style="stroke:#3A4A5C;stroke-width:1;" fill="none" id="DSIC-to-TR"/><polygon points="660.87,175.179,653.6,168.536,656.127,173.596,651.067,176.124,660.87,175.179" fill="#3A4A5C" style="stroke:#3A4A5C;stroke-width:1;stroke-linejoin:miter;stroke-miterlimit:10;"/></g><!--link DPO to TR--><g class="link" data-entity-1="ent0007" data-entity-2="ent0008" id="lnk13" data-source-line="31" data-link-type="dependency"><path d="M580.52,201.939 C607.64,201.939 630.75,201.939 655.73,201.939" style="stroke:#3A4A5C;stroke-width:1;" fill="none" id="DPO-to-TR"/><polygon points="660.73,201.939,651.73,197.939,655.73,201.939,651.73,205.939,660.73,201.939" fill="#3A4A5C" style="stroke:#3A4A5C;stroke-width:1;stroke-linejoin:miter;stroke-miterlimit:10;"/></g><!--link GES to TR--><g class="link" data-entity-1="ent0004" data-entity-2="ent0008" id="lnk14" data-source-line="32" data-link-type="dependency"><path d="M249.13,297.089 C343.29,289.759 481.69,275.419 600,248.939 C620.27,244.399 636.98,239.632 656.89,233.082" style="stroke:#3A4A5C;stroke-width:1;" fill="none" id="GES-to-TR"/><polygon points="661.64,231.519,651.841,230.532,656.89,233.082,654.341,238.132,661.64,231.519" fill="#3A4A5C" style="stroke:#3A4A5C;stroke-width:1;stroke-linejoin:miter;stroke-miterlimit:10;"/></g><!--link TR to SIG--><g class="link" data-entity-1="ent0008" data-entity-2="ent0009" id="lnk15" data-source-line="33" data-link-type="dependency"><path d="M823.08,201.939 C862.19,201.939 902.62,201.939 934.78,201.939" style="stroke:#3A4A5C;stroke-width:1;" fill="none" id="TR-to-SIG"/><polygon points="939.78,201.939,930.78,197.939,934.78,201.939,930.78,205.939,939.78,201.939" fill="#3A4A5C" style="stroke:#3A4A5C;stroke-width:1;stroke-linejoin:miter;stroke-miterlimit:10;"/><text x="856" y="198.596" fill="#000" font-size="11" textLength="53.641" font-family="'Helvetica'">JSON v1.5</text></g><?plantuml-src VPJDKjj03CVlVWfDUW1Id4--3vsn7GVIOKYQP3ezv29inIpOks6z3WETFX27ddhelNcnodP2JKcRWsTt9Vqa_LUR7UXd90r1I3640YED2OAGYymqHO8HfKr3mav5nCj6kenWjsUtsiTx3HYJ34cB9zHdrWu0tE8ImRv53OiOfScIk95lR9D7sGeQZMQL-vBjLOO5Xrdf7JiYsxYgEMQnwIjfhZ0Xg5rGl2GZ0gnjzvg89u9sfs9CRp1K3q96CCSufOf5gqo6djAID9nKpXsjrOEdOgNXNTSvS0wzlur_ChKh9XU3ksWDBOBxnQ_YCQR0e8nYSfLcxTPkfuvpubOBy5IoK9AlvGtHF-ct--vMrognrJywTGygRZqqU8qflGNw_IFVt-PPvNNTurxNjMAQ6p0Aj8Xk3D-VvdQ4afOH9YRub8dLimHA18_JVRPwFWDQScKgXQa_W4S8LP0bvS5aS7xkJpQpPEcDBb3pKyuVKo0IaRlMuAi546owP7k1B8Zrkf0Y4AZhzPdSdP1UYe36T9zHQYvzU0y9wW214-tL05CON0t-mq9Jp7F1ycN06XdIJdbuwPS4P-g_9hYiP9m_7k2S256s-eupEHZruDTF63hvTpJCpGkj0WhNJQKpwNyv7-PMpyk_5xq2pvLQtwfYUBZ0F5hajQW5QRmMiGWnV2DBZryYFxzwVJBmYXOqwo184umcB7tnghb4dGKcq_mWqdrWxJkjigyUHnNZslLR_-2MRGHAflpIy7KAJL6CPPUv385O_P3xCB9Vy1oybVuPyswuFiCrPG4nr2WLfytvZT2TpL_2OqcPZbcSS3sUK5kFKAVHcabdD81bkt5O-B71ugi6s_vGD6RnhPMRqT0gEiqtJClBMYzpqdev7HShfi0PV9mChmhoRm00?></g></svg>