<?xml version="1.0" encoding="us-ascii" standalone="no"?><svg xmlns="http://www.w3.org/2000/svg" xmlns:xlink="http://www.w3.org/1999/xlink" contentStyleType="text/css" height="770px" preserveAspectRatio="none" style="width:1269px;height:770px;background:#FFFFFF;" version="1.1" viewBox="0 0 1269 770" width="1269px" zoomAndPan="magnify"><defs/><g><text fill="#000000" font-family="Roboto Condensed" font-size="14" font-weight="bold" lengthAdjust="spacing" textLength="385" x="443.25" y="29.5332">Diagrama de Secuencia para Recuperaci&#243;n del Informe</text><rect fill="#FFFFFF" height="570.6484" style="stroke:#107050;stroke-width:1.0;" width="10" x="320.5" y="153.5703"/><rect fill="#FFFFFF" height="540.2969" style="stroke:#107050;stroke-width:1.0;" width="10" x="880.5" y="183.9219"/><rect fill="#FFFFFF" height="547.2969" rx="4.5" ry="4.5" style="stroke:#107050;stroke-width:1.5;" width="1252.5" x="10" y="198.9219"/><rect fill="#FFFFFF" height="320.3516" rx="4.5" ry="4.5" style="stroke:#107050;stroke-width:1.5;" width="1232.5" x="20" y="328.3281"/><path d="M20,572.1406 L1252.5,572.1406 L1252.5,644.1797 A4.5,4.5 0 0 1 1248,648.6797 L24.5,648.6797 A4.5,4.5 0 0 1 20,644.1797 L20,572.1406 " fill="#FFFFFF" style="stroke:none;stroke-width:1.0;"/><path d="M10,655.6797 L1262.5,655.6797 L1262.5,741.7188 A4.5,4.5 0 0 1 1258,746.2188 L14.5,746.2188 A4.5,4.5 0 0 1 10,741.7188 L10,655.6797 " fill="#FFFFFF" style="stroke:none;stroke-width:1.0;"/><line style="stroke:#107050;stroke-width:0.5;stroke-dasharray:5.0,5.0;" x1="68" x2="68" y1="121.2188" y2="763.2188"/><line style="stroke:#107050;stroke-width:0.5;stroke-dasharray:5.0,5.0;" x1="325" x2="325" y1="121.2188" y2="763.2188"/><line style="stroke:#107050;stroke-width:0.5;stroke-dasharray:5.0,5.0;" x1="885" x2="885" y1="121.2188" y2="763.2188"/><text fill="#000000" font-family="Roboto Condensed" font-size="14" lengthAdjust="spacing" textLength="71" x="30" y="118.1426">Profesional</text><ellipse cx="68.5" cy="52.1094" fill="#FFFFFF" rx="8" ry="8" style="stroke:#107050;stroke-width:0.5;"/><path d="M68.5,60.1094 L68.5,87.1094 M55.5,68.1094 L81.5,68.1094 M68.5,87.1094 L55.5,102.1094 M68.5,87.1094 L81.5,102.1094 " fill="none" style="stroke:#107050;stroke-width:0.5;"/><rect fill="#FFFFFF" height="31.6094" rx="4.5" ry="4.5" style="stroke:#107050;stroke-width:0.5;" width="263" x="194" y="88.6094"/><text fill="#000000" font-family="Roboto Condensed" font-size="14" lengthAdjust="spacing" textLength="249" x="201" y="110.1426">Sistema Integral de Gesti&#243;n Oncol&#243;gica</text><text fill="#000000" font-family="Roboto Condensed" font-size="14" lengthAdjust="spacing" textLength="219" x="773" y="118.1426">Repositorio Anatom&#237;as Patol&#243;gicas</text><path d="M867.5,67.6094 C867.5,57.6094 885.5,57.6094 885.5,57.6094 C885.5,57.6094 903.5,57.6094 903.5,67.6094 L903.5,93.6094 C903.5,103.6094 885.5,103.6094 885.5,103.6094 C885.5,103.6094 867.5,103.6094 867.5,93.6094 L867.5,67.6094 " fill="#FFFFFF" style="stroke:#107050;stroke-width:1.5;"/><path d="M867.5,67.6094 C867.5,77.6094 885.5,77.6094 885.5,77.6094 C885.5,77.6094 903.5,77.6094 903.5,67.6094 " fill="none" style="stroke:#107050;stroke-width:1.5;"/><rect fill="#FFFFFF" height="570.6484" style="stroke:#107050;stroke-width:1.0;" width="10" x="320.5" y="153.5703"/><rect fill="#FFFFFF" height="540.2969" style="stroke:#107050;stroke-width:1.0;" width="10" x="880.5" y="183.9219"/><polygon fill="#107050" points="308.5,149.5703,318.5,153.5703,308.5,157.5703,312.5,153.5703" style="stroke:#107050;stroke-width:1.0;"/><line style="stroke:#107050;stroke-width:1.0;" x1="68.5" x2="314.5" y1="153.5703" y2="153.5703"/><text fill="#000000" font-family="Roboto Condensed" font-size="13" lengthAdjust="spacing" textLength="233" x="75.5" y="148.7139">Genera consulta de anatom&#237;a patol&#243;gica</text><polygon fill="#107050" points="868.5,179.9219,878.5,183.9219,868.5,187.9219,872.5,183.9219" style="stroke:#107050;stroke-width:1.0;"/><line style="stroke:#107050;stroke-width:1.0;" x1="330.5" x2="874.5" y1="183.9219" y2="183.9219"/><text fill="#000000" font-family="Roboto Condensed" font-size="13" lengthAdjust="spacing" textLength="208" x="337.5" y="179.0654">Solicitud de Token de Autenticaci&#243;n</text><path d="M14.5,198.9219 L71,198.9219 L71,207.2734 L61,217.2734 L10,217.2734 L10,203.4219 A4.5,4.5 0 0 1 14.5,198.9219 " fill="#FFFFFF" style="stroke:#107050;stroke-width:1.5;"/><rect fill="none" height="547.2969" rx="4.5" ry="4.5" style="stroke:#107050;stroke-width:1.5;" width="1252.5" x="10" y="198.9219"/><text fill="#000000" font-family="Roboto Condensed" font-size="13" font-weight="bold" lengthAdjust="spacing" textLength="16" x="25" y="213.417">alt</text><text fill="#000000" font-family="Roboto Condensed" font-size="11" font-weight="bold" lengthAdjust="spacing" textLength="78" x="86" y="212.3408">[Token v&#225;lido]</text><polygon fill="#107050" points="341.5,235.625,331.5,239.625,341.5,243.625,337.5,239.625" style="stroke:#107050;stroke-width:1.0;"/><line style="stroke:#107050;stroke-width:1.0;" x1="335.5" x2="879.5" y1="239.625" y2="239.625"/><text fill="#000000" font-family="Roboto Condensed" font-size="13" lengthAdjust="spacing" textLength="227" x="347.5" y="234.7686">Respuesta con Token de Autenticaci&#243;n</text><polygon fill="#107050" points="868.5,265.9766,878.5,269.9766,868.5,273.9766,872.5,269.9766" style="stroke:#107050;stroke-width:1.0;"/><line style="stroke:#107050;stroke-width:1.0;" x1="330.5" x2="874.5" y1="269.9766" y2="269.9766"/><text fill="#000000" font-family="Roboto Condensed" font-size="13" lengthAdjust="spacing" textLength="277" x="337.5" y="265.1201">Realiza un GET a la API FHIR DiagnosticReport</text><line style="stroke:#107050;stroke-width:1.0;" x1="890.5" x2="932.5" y1="300.3281" y2="300.3281"/><line style="stroke:#107050;stroke-width:1.0;" x1="932.5" x2="932.5" y1="300.3281" y2="313.3281"/><line style="stroke:#107050;stroke-width:1.0;" x1="891.5" x2="932.5" y1="313.3281" y2="313.3281"/><polygon fill="#107050" points="901.5,309.3281,891.5,313.3281,901.5,317.3281,897.5,313.3281" style="stroke:#107050;stroke-width:1.0;"/><text fill="#000000" font-family="Roboto Condensed" font-size="13" lengthAdjust="spacing" textLength="176" x="897.5" y="295.4717">Busqueda en la base de datos</text><path d="M24.5,328.3281 L81,328.3281 L81,336.6797 L71,346.6797 L20,346.6797 L20,332.8281 A4.5,4.5 0 0 1 24.5,328.3281 " fill="#FFFFFF" style="stroke:#107050;stroke-width:1.5;"/><rect fill="none" height="320.3516" rx="4.5" ry="4.5" style="stroke:#107050;stroke-width:1.5;" width="1232.5" x="20" y="328.3281"/><text fill="#000000" font-family="Roboto Condensed" font-size="13" font-weight="bold" lengthAdjust="spacing" textLength="16" x="35" y="342.8232">alt</text><text fill="#000000" font-family="Roboto Condensed" font-size="11" font-weight="bold" lengthAdjust="spacing" textLength="118" x="96" y="341.7471">[Informe encontrado]</text><polygon fill="#107050" points="341.5,365.0313,331.5,369.0313,341.5,373.0313,337.5,369.0313" style="stroke:#107050;stroke-width:1.0;"/><line style="stroke:#107050;stroke-width:1.0;" x1="335.5" x2="879.5" y1="369.0313" y2="369.0313"/><text fill="#000000" font-family="Roboto Condensed" font-size="13" lengthAdjust="spacing" textLength="164" x="347.5" y="364.1748">Respuesta exitosa (200 OK)</text><polygon fill="#107050" points="79.5,395.3828,69.5,399.3828,79.5,403.3828,75.5,399.3828" style="stroke:#107050;stroke-width:1.0;"/><line style="stroke:#107050;stroke-width:1.0;" x1="73.5" x2="319.5" y1="399.3828" y2="399.3828"/><text fill="#000000" font-family="Roboto Condensed" font-size="13" lengthAdjust="spacing" textLength="176" x="85.5" y="394.5264">Muestra informaci&#243;n solicitada</text><polygon fill="#107050" points="308.5,425.7344,318.5,429.7344,308.5,433.7344,312.5,429.7344" style="stroke:#107050;stroke-width:1.0;"/><line style="stroke:#107050;stroke-width:1.0;" x1="68.5" x2="314.5" y1="429.7344" y2="429.7344"/><text fill="#000000" font-family="Roboto Condensed" font-size="13" lengthAdjust="spacing" textLength="194" x="75.5" y="424.8779">Solicita mostrar informe completo</text><polygon fill="#107050" points="868.5,456.0859,878.5,460.0859,868.5,464.0859,872.5,460.0859" style="stroke:#107050;stroke-width:1.0;"/><line style="stroke:#107050;stroke-width:1.0;" x1="330.5" x2="874.5" y1="460.0859" y2="460.0859"/><text fill="#000000" font-family="Roboto Condensed" font-size="13" lengthAdjust="spacing" textLength="526" x="337.5" y="455.2295">Realiza un GET con la operaci&#243;n $document a la API FHIR Composition con ID del recurso</text><line style="stroke:#107050;stroke-width:1.0;" x1="890.5" x2="932.5" y1="490.4375" y2="490.4375"/><line style="stroke:#107050;stroke-width:1.0;" x1="932.5" x2="932.5" y1="490.4375" y2="503.4375"/><line style="stroke:#107050;stroke-width:1.0;" x1="891.5" x2="932.5" y1="503.4375" y2="503.4375"/><polygon fill="#107050" points="901.5,499.4375,891.5,503.4375,901.5,507.4375,897.5,503.4375" style="stroke:#107050;stroke-width:1.0;"/><text fill="#000000" font-family="Roboto Condensed" font-size="13" lengthAdjust="spacing" textLength="343" x="897.5" y="485.5811">Busqueda en la base de datos y generaci&#243;n del documento</text><polygon fill="#107050" points="341.5,529.7891,331.5,533.7891,341.5,537.7891,337.5,533.7891" style="stroke:#107050;stroke-width:1.0;"/><line style="stroke:#107050;stroke-width:1.0;" x1="335.5" x2="879.5" y1="533.7891" y2="533.7891"/><text fill="#000000" font-family="Roboto Condensed" font-size="13" lengthAdjust="spacing" textLength="310" x="347.5" y="528.9326">Respuesta exitosa (200 OK) con el Bundle Document</text><polygon fill="#107050" points="79.5,560.1406,69.5,564.1406,79.5,568.1406,75.5,564.1406" style="stroke:#107050;stroke-width:1.0;"/><line style="stroke:#107050;stroke-width:1.0;" x1="73.5" x2="319.5" y1="564.1406" y2="564.1406"/><text fill="#000000" font-family="Roboto Condensed" font-size="13" lengthAdjust="spacing" textLength="164" x="85.5" y="559.2842">Muestra el informe completo</text><line style="stroke:#107050;stroke-width:1.0;stroke-dasharray:2.0,2.0;" x1="20" x2="1252.5" y1="573.1406" y2="573.1406"/><text fill="#000000" font-family="Roboto Condensed" font-size="11" font-weight="bold" lengthAdjust="spacing" textLength="135" x="25" y="584.5596">[Informe no encontrado]</text><polygon fill="#107050" points="341.5,606.3281,331.5,610.3281,341.5,614.3281,337.5,610.3281" style="stroke:#107050;stroke-width:1.0;"/><line style="stroke:#107050;stroke-width:1.0;" x1="335.5" x2="879.5" y1="610.3281" y2="610.3281"/><text fill="#000000" font-family="Roboto Condensed" font-size="13" lengthAdjust="spacing" textLength="207" x="347.5" y="605.4717">Respuesta de error (404 Not Found)</text><polygon fill="#107050" points="79.5,636.6797,69.5,640.6797,79.5,644.6797,75.5,640.6797" style="stroke:#107050;stroke-width:1.0;"/><line style="stroke:#107050;stroke-width:1.0;" x1="73.5" x2="319.5" y1="640.6797" y2="640.6797"/><text fill="#000000" font-family="Roboto Condensed" font-size="13" lengthAdjust="spacing" textLength="218" x="85.5" y="635.8232">Notifica que no se encontr&#243; el informe</text><line style="stroke:#107050;stroke-width:1.0;stroke-dasharray:2.0,2.0;" x1="10" x2="1262.5" y1="656.6797" y2="656.6797"/><text fill="#000000" font-family="Roboto Condensed" font-size="11" font-weight="bold" lengthAdjust="spacing" textLength="88" x="15" y="668.0986">[Token inv&#225;lido]</text><polygon fill="#107050" points="341.5,689.8672,331.5,693.8672,341.5,697.8672,337.5,693.8672" style="stroke:#107050;stroke-width:1.0;"/><line style="stroke:#107050;stroke-width:1.0;" x1="335.5" x2="879.5" y1="693.8672" y2="693.8672"/><text fill="#000000" font-family="Roboto Condensed" font-size="13" lengthAdjust="spacing" textLength="223" x="347.5" y="689.0107">Respuesta de error (401 Unauthorized)</text><polygon fill="#107050" points="79.5,720.2188,69.5,724.2188,79.5,728.2188,75.5,724.2188" style="stroke:#107050;stroke-width:1.0;"/><line style="stroke:#107050;stroke-width:1.0;" x1="73.5" x2="324.5" y1="724.2188" y2="724.2188"/><text fill="#000000" font-family="Roboto Condensed" font-size="13" lengthAdjust="spacing" textLength="172" x="85.5" y="719.3623">Notifica error de autenticaci&#243;n</text><polygon fill="#107050" points="313.5,734.2188,323.5,738.2188,313.5,742.2188,317.5,738.2188" style="stroke:#107050;stroke-width:1.0;"/><line style="stroke:#107050;stroke-width:1.0;stroke-dasharray:2.0,2.0;" x1="68.5" x2="319.5" y1="738.2188" y2="738.2188"/><!--SRC=[fLHBSXf13DttAHGg2sSHXwIyOk4gY6D2fH8eS0uWpmZSbPxMf3yksxV90RBY25miwfxXKs0JEs51COFqz9wUfA238RZGk71O8PG4CoeYsK8ZrEWGfl9OayD2hvPM_ZSmidDs5IbreoLypXok-KwfLzeM9igRqtS-t1iwrR4oIc4Hs45dudXENhD5qm7q47r4frb9ZQ0BNQCDq9bf7qXOZ6mWuMCIdI7va4kFRS5cjLpe0ZF2R3GSgn83NgCdw4ofPg-bbcReMmnShNvBr4H-jLa-f-t43JJNNgDIBHbuUvvHUrBKYcGesFfeGcuBhZ6bBHl8f4xVOg26JVfA88SrUZ1Z8pf3B1FO5V-Wr4penq1M6j2qTmlt24iqeSsxNVqokcG5yZaCtAgOag-Zj2yBUR9cGZb6V4fez0D2j33yT0K81g4_6S7bvz4q3uvbSQX8gIuSuVGOzY3wdv5A164ciDb9OIYkiizGINGxRn8ZCeB3LldprTETX7Y4am_TBeo_lDcahsMt_lVWQqeGutKksSwyRvp34ZU91mFJkejGSG9mBG99vwlQKE23cizeTN9DkiBRzNjTSX4hSM_FXezI9Q79VkMiqKNUL2Uxw_pVslLIO-0U5da_jYTXJUj_dSda1MyGRPdEKWkhZfebyVlTXfn1HbYlfyVolm-GA2Vdv8oTd7NFu1i7k6HXU6IG94RFPSL0kfXA-ytuhfOxX1kQjbIPQhEXshvyltS9leVl5cEuaPG7QZa-pQz9I_Vjy2gKTEmUxKNa0vZUEGhHMIMgu0y0]--></g></svg>