<?xml version="1.0" encoding="us-ascii" standalone="no"?><svg xmlns="http://www.w3.org/2000/svg" xmlns:xlink="http://www.w3.org/1999/xlink" contentStyleType="text/css" height="605px" preserveAspectRatio="none" style="width:843px;height:605px;background:#FFFFFF;" version="1.1" viewBox="0 0 843 605" width="843px" zoomAndPan="magnify"><defs/><g><text fill="#000000" font-family="Roboto Condensed" font-size="14" font-weight="bold" lengthAdjust="spacing" textLength="481" x="182.25" y="29.5332">Diagrama de Secuencia para Recuperaci&#243;n del Resumen del Informe</text><rect fill="#FFFFFF" height="405.8906" style="stroke:#107050;stroke-width:1.0;" width="10" x="320.5" y="153.5703"/><rect fill="#FFFFFF" height="375.5391" style="stroke:#107050;stroke-width:1.0;" width="10" x="631.5" y="183.9219"/><rect fill="#FFFFFF" height="382.5391" rx="4.5" ry="4.5" style="stroke:#107050;stroke-width:1.5;" width="826.5" x="10" y="198.9219"/><rect fill="#FFFFFF" height="155.5938" rx="4.5" ry="4.5" style="stroke:#107050;stroke-width:1.5;" width="739" x="20" y="328.3281"/><path d="M20,407.3828 L759,407.3828 L759,479.4219 A4.5,4.5 0 0 1 754.5,483.9219 L24.5,483.9219 A4.5,4.5 0 0 1 20,479.4219 L20,407.3828 " fill="#FFFFFF" style="stroke:none;stroke-width:1.0;"/><path d="M10,490.9219 L836.5,490.9219 L836.5,576.9609 A4.5,4.5 0 0 1 832,581.4609 L14.5,581.4609 A4.5,4.5 0 0 1 10,576.9609 L10,490.9219 " fill="#FFFFFF" style="stroke:none;stroke-width:1.0;"/><line style="stroke:#107050;stroke-width:0.5;stroke-dasharray:5.0,5.0;" x1="68" x2="68" y1="121.2188" y2="598.4609"/><line style="stroke:#107050;stroke-width:0.5;stroke-dasharray:5.0,5.0;" x1="325" x2="325" y1="121.2188" y2="598.4609"/><line style="stroke:#107050;stroke-width:0.5;stroke-dasharray:5.0,5.0;" x1="636" x2="636" y1="121.2188" y2="598.4609"/><text fill="#000000" font-family="Roboto Condensed" font-size="14" lengthAdjust="spacing" textLength="71" x="30" y="118.1426">Profesional</text><ellipse cx="68.5" cy="52.1094" fill="#FFFFFF" rx="8" ry="8" style="stroke:#107050;stroke-width:0.5;"/><path d="M68.5,60.1094 L68.5,87.1094 M55.5,68.1094 L81.5,68.1094 M68.5,87.1094 L55.5,102.1094 M68.5,87.1094 L81.5,102.1094 " fill="none" style="stroke:#107050;stroke-width:0.5;"/><rect fill="#FFFFFF" height="31.6094" rx="4.5" ry="4.5" style="stroke:#107050;stroke-width:0.5;" width="263" x="194" y="88.6094"/><text fill="#000000" font-family="Roboto Condensed" font-size="14" lengthAdjust="spacing" textLength="249" x="201" y="110.1426">Sistema Integral de Gesti&#243;n Oncol&#243;gica</text><text fill="#000000" font-family="Roboto Condensed" font-size="14" lengthAdjust="spacing" textLength="219" x="524" y="118.1426">Repositorio Anatom&#237;as Patol&#243;gicas</text><path d="M618.5,67.6094 C618.5,57.6094 636.5,57.6094 636.5,57.6094 C636.5,57.6094 654.5,57.6094 654.5,67.6094 L654.5,93.6094 C654.5,103.6094 636.5,103.6094 636.5,103.6094 C636.5,103.6094 618.5,103.6094 618.5,93.6094 L618.5,67.6094 " fill="#FFFFFF" style="stroke:#107050;stroke-width:1.5;"/><path d="M618.5,67.6094 C618.5,77.6094 636.5,77.6094 636.5,77.6094 C636.5,77.6094 654.5,77.6094 654.5,67.6094 " fill="none" style="stroke:#107050;stroke-width:1.5;"/><rect fill="#FFFFFF" height="405.8906" style="stroke:#107050;stroke-width:1.0;" width="10" x="320.5" y="153.5703"/><rect fill="#FFFFFF" height="375.5391" style="stroke:#107050;stroke-width:1.0;" width="10" x="631.5" y="183.9219"/><polygon fill="#107050" points="308.5,149.5703,318.5,153.5703,308.5,157.5703,312.5,153.5703" style="stroke:#107050;stroke-width:1.0;"/><line style="stroke:#107050;stroke-width:1.0;" x1="68.5" x2="314.5" y1="153.5703" y2="153.5703"/><text fill="#000000" font-family="Roboto Condensed" font-size="13" lengthAdjust="spacing" textLength="233" x="75.5" y="148.7139">Genera consulta de anatom&#237;a patol&#243;gica</text><polygon fill="#107050" points="619.5,179.9219,629.5,183.9219,619.5,187.9219,623.5,183.9219" style="stroke:#107050;stroke-width:1.0;"/><line style="stroke:#107050;stroke-width:1.0;" x1="330.5" x2="625.5" y1="183.9219" y2="183.9219"/><text fill="#000000" font-family="Roboto Condensed" font-size="13" lengthAdjust="spacing" textLength="208" x="337.5" y="179.0654">Solicitud de Token de Autenticaci&#243;n</text><path d="M14.5,198.9219 L71,198.9219 L71,207.2734 L61,217.2734 L10,217.2734 L10,203.4219 A4.5,4.5 0 0 1 14.5,198.9219 " fill="#FFFFFF" style="stroke:#107050;stroke-width:1.5;"/><rect fill="none" height="382.5391" rx="4.5" ry="4.5" style="stroke:#107050;stroke-width:1.5;" width="826.5" x="10" y="198.9219"/><text fill="#000000" font-family="Roboto Condensed" font-size="13" font-weight="bold" lengthAdjust="spacing" textLength="16" x="25" y="213.417">alt</text><text fill="#000000" font-family="Roboto Condensed" font-size="11" font-weight="bold" lengthAdjust="spacing" textLength="78" x="86" y="212.3408">[Token v&#225;lido]</text><polygon fill="#107050" points="341.5,235.625,331.5,239.625,341.5,243.625,337.5,239.625" style="stroke:#107050;stroke-width:1.0;"/><line style="stroke:#107050;stroke-width:1.0;" x1="335.5" x2="630.5" y1="239.625" y2="239.625"/><text fill="#000000" font-family="Roboto Condensed" font-size="13" lengthAdjust="spacing" textLength="227" x="347.5" y="234.7686">Respuesta con Token de Autenticaci&#243;n</text><polygon fill="#107050" points="619.5,265.9766,629.5,269.9766,619.5,273.9766,623.5,269.9766" style="stroke:#107050;stroke-width:1.0;"/><line style="stroke:#107050;stroke-width:1.0;" x1="330.5" x2="625.5" y1="269.9766" y2="269.9766"/><text fill="#000000" font-family="Roboto Condensed" font-size="13" lengthAdjust="spacing" textLength="277" x="337.5" y="265.1201">Realiza un GET a la API FHIR DiagnosticReport</text><line style="stroke:#107050;stroke-width:1.0;" x1="641.5" x2="683.5" y1="300.3281" y2="300.3281"/><line style="stroke:#107050;stroke-width:1.0;" x1="683.5" x2="683.5" y1="300.3281" y2="313.3281"/><line style="stroke:#107050;stroke-width:1.0;" x1="642.5" x2="683.5" y1="313.3281" y2="313.3281"/><polygon fill="#107050" points="652.5,309.3281,642.5,313.3281,652.5,317.3281,648.5,313.3281" style="stroke:#107050;stroke-width:1.0;"/><text fill="#000000" font-family="Roboto Condensed" font-size="13" lengthAdjust="spacing" textLength="176" x="648.5" y="295.4717">Busqueda en la base de datos</text><path d="M24.5,328.3281 L81,328.3281 L81,336.6797 L71,346.6797 L20,346.6797 L20,332.8281 A4.5,4.5 0 0 1 24.5,328.3281 " fill="#FFFFFF" style="stroke:#107050;stroke-width:1.5;"/><rect fill="none" height="155.5938" rx="4.5" ry="4.5" style="stroke:#107050;stroke-width:1.5;" width="739" x="20" y="328.3281"/><text fill="#000000" font-family="Roboto Condensed" font-size="13" font-weight="bold" lengthAdjust="spacing" textLength="16" x="35" y="342.8232">alt</text><text fill="#000000" font-family="Roboto Condensed" font-size="11" font-weight="bold" lengthAdjust="spacing" textLength="118" x="96" y="341.7471">[Informe encontrado]</text><polygon fill="#107050" points="341.5,365.0313,331.5,369.0313,341.5,373.0313,337.5,369.0313" style="stroke:#107050;stroke-width:1.0;"/><line style="stroke:#107050;stroke-width:1.0;" x1="335.5" x2="630.5" y1="369.0313" y2="369.0313"/><text fill="#000000" font-family="Roboto Condensed" font-size="13" lengthAdjust="spacing" textLength="164" x="347.5" y="364.1748">Respuesta exitosa (200 OK)</text><polygon fill="#107050" points="79.5,395.3828,69.5,399.3828,79.5,403.3828,75.5,399.3828" style="stroke:#107050;stroke-width:1.0;"/><line style="stroke:#107050;stroke-width:1.0;" x1="73.5" x2="319.5" y1="399.3828" y2="399.3828"/><text fill="#000000" font-family="Roboto Condensed" font-size="13" lengthAdjust="spacing" textLength="176" x="85.5" y="394.5264">Muestra informaci&#243;n solicitada</text><line style="stroke:#107050;stroke-width:1.0;stroke-dasharray:2.0,2.0;" x1="20" x2="759" y1="408.3828" y2="408.3828"/><text fill="#000000" font-family="Roboto Condensed" font-size="11" font-weight="bold" lengthAdjust="spacing" textLength="135" x="25" y="419.8018">[Informe no encontrado]</text><polygon fill="#107050" points="341.5,441.5703,331.5,445.5703,341.5,449.5703,337.5,445.5703" style="stroke:#107050;stroke-width:1.0;"/><line style="stroke:#107050;stroke-width:1.0;" x1="335.5" x2="630.5" y1="445.5703" y2="445.5703"/><text fill="#000000" font-family="Roboto Condensed" font-size="13" lengthAdjust="spacing" textLength="207" x="347.5" y="440.7139">Respuesta de error (404 Not Found)</text><polygon fill="#107050" points="79.5,471.9219,69.5,475.9219,79.5,479.9219,75.5,475.9219" style="stroke:#107050;stroke-width:1.0;"/><line style="stroke:#107050;stroke-width:1.0;" x1="73.5" x2="319.5" y1="475.9219" y2="475.9219"/><text fill="#000000" font-family="Roboto Condensed" font-size="13" lengthAdjust="spacing" textLength="218" x="85.5" y="471.0654">Notifica que no se encontr&#243; el informe</text><line style="stroke:#107050;stroke-width:1.0;stroke-dasharray:2.0,2.0;" x1="10" x2="836.5" y1="491.9219" y2="491.9219"/><text fill="#000000" font-family="Roboto Condensed" font-size="11" font-weight="bold" lengthAdjust="spacing" textLength="88" x="15" y="503.3408">[Token inv&#225;lido]</text><polygon fill="#107050" points="341.5,525.1094,331.5,529.1094,341.5,533.1094,337.5,529.1094" style="stroke:#107050;stroke-width:1.0;"/><line style="stroke:#107050;stroke-width:1.0;" x1="335.5" x2="630.5" y1="529.1094" y2="529.1094"/><text fill="#000000" font-family="Roboto Condensed" font-size="13" lengthAdjust="spacing" textLength="223" x="347.5" y="524.2529">Respuesta de error (401 Unauthorized)</text><polygon fill="#107050" points="79.5,555.4609,69.5,559.4609,79.5,563.4609,75.5,559.4609" style="stroke:#107050;stroke-width:1.0;"/><line style="stroke:#107050;stroke-width:1.0;" x1="73.5" x2="324.5" y1="559.4609" y2="559.4609"/><text fill="#000000" font-family="Roboto Condensed" font-size="13" lengthAdjust="spacing" textLength="172" x="85.5" y="554.6045">Notifica error de autenticaci&#243;n</text><polygon fill="#107050" points="313.5,569.4609,323.5,573.4609,313.5,577.4609,317.5,573.4609" style="stroke:#107050;stroke-width:1.0;"/><line style="stroke:#107050;stroke-width:1.0;stroke-dasharray:2.0,2.0;" x1="68.5" x2="319.5" y1="573.4609" y2="573.4609"/><!--SRC=[dPF1RXD138RlynGcftAW1DHJ3aYfe252a2Wf3-3kEgt5xCmouwbAtuO7u9H7s1V3Cxj9Az96m1wYpQpz-_jjZx1OWlUCrm4RX9fWJLKYLp52Ym5XfNzR2bXnjtNwtUf9J0trxtEtyQ4XOsvOKpVUovM_C-O5kyecFJbz7UM7fLDEZJK6A_41HilWDnJPExGZm0Wf9WpiZTOJhhX59p1QSnHIehaJKZQRqMOKfM0iNELjjxtc2el2UZvRc1e5hp0IZ5RK-iXQYprC7OflkbyQjTIt8IkMj4Tnv-pRo6ZC00EltXNLYHPrQXygxsAoKbg4EqrjqLuok-DR5EffyayMEQmnWRMtwbDIdSKk_RVIJ9Wc8QSDw5lz8FS49LePycwxdvPhRq2Vmy075pgqDcdxYf5dQsQLO-0hGilt2Cd1xCCb85Y4wN8E5n_dgx94pkk4gfmQv0ZJKzhdANvFL2CecSgMIIgXJjN78fLD3_kcCMf30WxE_zuztMb8H3XvEnx3ujFBVVhEzZ3_2NpE2JfuBYM7_O_zvB36aaXM8NTCply_bXgb4FHod9oDp-2B5xZmoTL7y3I6DpeuqARbqd7Vb6whN0CszPYkDWMrdpkxVz-Qnu1luAl393UQSay3u_DyVLg-DOUxLjEnBVyZebohV1P8Kd16NS5l]--></g></svg>